<svg width="37" height="38" viewBox="0 0 37 38" fill="none" xmlns="http://www.w3.org/2000/svg">
<path d="M12.3756 29.9032C12.3756 30.0566 12.204 30.1794 11.9877 30.1794C11.7415 30.2024 11.57 30.0797 11.57 29.9032C11.57 29.7498 11.7415 29.627 11.9579 29.627C12.1817 29.604 12.3756 29.7268 12.3756 29.9032ZM10.0556 29.558C10.0034 29.7114 10.1526 29.8879 10.3764 29.9339C10.5704 30.0106 10.7942 29.9339 10.8389 29.7805C10.8837 29.627 10.7419 29.4506 10.5181 29.3816C10.3242 29.3279 10.1079 29.4046 10.0556 29.558ZM13.3528 29.4276C13.1365 29.4813 12.9873 29.627 13.0097 29.8035C13.0321 29.9569 13.226 30.0566 13.4498 30.0029C13.6661 29.9492 13.8153 29.8035 13.7929 29.6501C13.7706 29.5043 13.5692 29.4046 13.3528 29.4276ZM18.2613 0.0305176C7.91472 0.0305176 0 8.10858 0 18.7489C0 27.2566 5.20686 34.5368 12.6442 37.0991C13.599 37.2755 13.9347 36.6695 13.9347 36.1708C13.9347 35.6952 13.9123 33.0715 13.9123 31.4605C13.9123 31.4605 8.69052 32.6112 7.59395 29.1744C7.59395 29.1744 6.74355 26.942 5.52016 26.3667C5.52016 26.3667 3.8119 25.1623 5.63952 25.1853C5.63952 25.1853 7.49698 25.3387 8.51895 27.1645C10.1526 30.1257 12.8903 29.2742 13.9571 28.7678C14.1286 27.5404 14.6135 26.6889 15.1506 26.1826C10.9806 25.7069 6.77339 25.0855 6.77339 17.7056C6.77339 15.5959 7.34032 14.5373 8.53387 13.1871C8.33992 12.6884 7.70585 10.6325 8.72782 7.97816C10.2869 7.47951 13.875 10.0495 13.875 10.0495C15.3669 9.61985 16.9708 9.39738 18.5597 9.39738C20.1486 9.39738 21.7524 9.61985 23.2444 10.0495C23.2444 10.0495 26.8325 7.47184 28.3915 7.97816C29.4135 10.6402 28.7794 12.6884 28.5855 13.1871C29.779 14.5449 30.5101 15.6036 30.5101 17.7056C30.5101 25.1086 26.1163 25.6993 21.9464 26.1826C22.6327 26.7886 23.2145 27.9393 23.2145 29.7421C23.2145 32.3274 23.1921 35.5264 23.1921 36.1555C23.1921 36.6541 23.5353 37.2602 24.4827 37.0837C31.9423 34.5368 37 27.2566 37 18.7489C37 8.10858 28.6079 0.0305176 18.2613 0.0305176ZM7.25081 26.4894C7.15383 26.5661 7.17621 26.7426 7.30302 26.8883C7.42238 27.0111 7.59395 27.0648 7.69093 26.965C7.7879 26.8883 7.76552 26.7119 7.63871 26.5661C7.51936 26.4434 7.34778 26.3897 7.25081 26.4894ZM6.44516 25.868C6.39294 25.9678 6.46754 26.0905 6.61673 26.1672C6.73609 26.2439 6.88528 26.2209 6.9375 26.1135C6.98972 26.0138 6.91512 25.891 6.76593 25.8143C6.61673 25.7683 6.49738 25.7913 6.44516 25.868ZM8.8621 28.5991C8.74274 28.6988 8.7875 28.9289 8.95907 29.0747C9.13065 29.2511 9.34698 29.2742 9.44395 29.1514C9.54093 29.0517 9.49617 28.8215 9.34698 28.6758C9.18286 28.4993 8.95907 28.4763 8.8621 28.5991ZM8.01169 27.4714C7.89234 27.5481 7.89234 27.7475 8.01169 27.924C8.13105 28.1004 8.33246 28.1771 8.42944 28.1004C8.54879 28.0007 8.54879 27.8012 8.42944 27.6248C8.325 27.4484 8.13105 27.3716 8.01169 27.4714Z" fill="#D7AA26" fill-opacity="0.86"/>
</svg>
