<svg width="37" height="39" viewBox="0 0 37 39" fill="none" xmlns="http://www.w3.org/2000/svg">
<path d="M33.0357 0.0305176H3.96429C1.77567 0.0305176 0 1.86043 0 4.11591V34.0755C0 36.3309 1.77567 38.1609 3.96429 38.1609H33.0357C35.2243 38.1609 37 36.3309 37 34.0755V4.11591C37 1.86043 35.2243 0.0305176 33.0357 0.0305176ZM28.9971 13.5464C29.0136 13.7847 29.0136 14.0315 29.0136 14.2698C29.0136 21.6491 23.5627 30.1518 13.6025 30.1518C10.5301 30.1518 7.6808 29.2326 5.28571 27.6495C5.72344 27.7006 6.14464 27.7176 6.59063 27.7176C9.12612 27.7176 11.4551 26.8324 13.3134 25.3344C10.9348 25.2834 8.93616 23.6747 8.25067 21.4618C9.08482 21.5895 9.83638 21.5895 10.6953 21.3597C8.21763 20.8405 6.35937 18.5935 6.35937 15.8784V15.8104C7.0779 16.2274 7.92031 16.4827 8.80402 16.5168C8.06107 16.0075 7.45202 15.3166 7.03121 14.5057C6.61041 13.6948 6.39095 12.7892 6.39241 11.8696C6.39241 10.8313 6.6567 9.87802 7.12746 9.05243C9.79509 12.4399 13.8007 14.6528 18.2935 14.8911C17.5254 11.1036 20.2757 8.03108 23.5792 8.03108C25.1402 8.03108 26.5442 8.70347 27.5353 9.79291C28.7576 9.55459 29.9304 9.08647 30.971 8.44813C30.5663 9.74184 29.7156 10.8313 28.5924 11.5207C29.6826 11.4015 30.7397 11.0866 31.7143 10.6525C30.9792 11.7675 30.0542 12.7548 28.9971 13.5464Z" fill="#D7AA26" fill-opacity="0.86"/>
</svg>
