<svg width="37" height="39" viewBox="0 0 37 39" fill="none" xmlns="http://www.w3.org/2000/svg">
<path d="M34.3571 0H2.6346C1.18103 0 0 1.23413 0 2.74913V35.3812C0 36.8962 1.18103 38.1303 2.6346 38.1303H34.3571C35.8107 38.1303 37 36.8962 37 35.3812V2.74913C37 1.23413 35.8107 0 34.3571 0ZM11.1826 32.6832H5.69866V14.4861H11.1908V32.6832H11.1826ZM8.44062 12.0008C6.68147 12.0008 5.26094 10.5284 5.26094 8.72402C5.26094 6.91964 6.68147 5.44719 8.44062 5.44719C10.1915 5.44719 11.6203 6.91964 11.6203 8.72402C11.6203 10.5369 10.1998 12.0008 8.44062 12.0008V12.0008ZM31.7391 32.6832H26.2551V23.8315C26.2551 21.7207 26.2138 19.0056 23.4058 19.0056C20.5482 19.0056 20.1105 21.3036 20.1105 23.6783V32.6832H14.6266V14.4861H19.8875V16.9714H19.9618C20.6969 15.5415 22.4891 14.035 25.1567 14.035C30.7067 14.035 31.7391 17.8055 31.7391 22.708V32.6832V32.6832Z" fill="#D7AA26" fill-opacity="0.86"/>
</svg>
